{
    "asset" : {
        "generator" : "Khronos glTF Blender I/O v1.0.5",
        "version" : "2.0"
    },
    "scene" : 0,
    "scenes" : [
        {
            "name" : "Scene",
            "nodes" : [
                1
            ]
        }
    ],
    "nodes" : [
        {
            "mesh" : 0,
            "name" : "duck_eyes",
            "rotation" : [
                -0.32924461364746094,
                -0.03150630369782448,
                0.25815287232398987,
                0.9077237844467163
            ],
            "scale" : [
                0.0785888284444809,
                0.17725417017936707,
                0.20524682104587555
            ],
            "translation" : [
                0.7859210968017578,
                0.5438308119773865,
                -0.1244884729385376
            ]
        },
        {
            "children" : [
                0
            ],
            "mesh" : 1,
            "name" : "duck",
            "rotation" : [
                0.7071068286895752,
                0,
                0,
                0.7071068286895752
            ],
            "scale" : [
                0.28573381900787354,
                0.31378069519996643,
                0.29711827635765076
            ],
            "translation" : [
                0.0012997016310691833,
                0.003280460834503174,
                -0.05601024627685547
            ]
        }
    ],
    "materials" : [
        {
            "name" : "Material.007",
            "pbrMetallicRoughness" : {
                "baseColorFactor" : [
                    0,
                    0,
                    0,
                    1
                ],
                "metallicFactor" : 1,
                "roughnessFactor" : 0.1818181872367859
            }
        },
        {
            "name" : "duck",
            "pbrMetallicRoughness" : {
                "baseColorFactor" : [
                    1,
                    0.6514056921005249,
                    0.11697076261043549,
                    1
                ],
                "metallicFactor" : 0,
                "roughnessFactor" : 0.34090906381607056
            }
        },
        {
            "name" : "beak",
            "pbrMetallicRoughness" : {
                "baseColorFactor" : [
                    0.43965721130371094,
                    0.16826936602592468,
                    0.08021986484527588,
                    1
                ],
                "metallicFactor" : 0.29545456171035767,
                "roughnessFactor" : 0.16818180680274963
            }
        }
    ],
    "meshes" : [
        {
            "name" : "Sphere.002",
            "primitives" : [
                {
                    "attributes" : {
                        "POSITION" : 0,
                        "NORMAL" : 1,
                        "TEXCOORD_0" : 2
                    },
                    "indices" : 3,
                    "material" : 0
                }
            ]
        },
        {
            "name" : "Sphere.001",
            "primitives" : [
                {
                    "attributes" : {
                        "POSITION" : 4,
                        "NORMAL" : 5,
                        "TEXCOORD_0" : 6
                    },
                    "indices" : 7,
                    "material" : 1
                },
                {
                    "attributes" : {
                        "POSITION" : 8,
                        "NORMAL" : 9,
                        "TEXCOORD_0" : 10
                    },
                    "indices" : 11,
                    "material" : 2
                }
            ]
        }
    ],
    "accessors" : [
        {
            "bufferView" : 0,
            "componentType" : 5126,
            "count" : 578,
            "max" : [
                2.6090283393859863,
                8.938700675964355,
                -1.7891790866851807
            ],
            "min" : [
                -16.944862365722656,
                3.1986937522888184,
                -5.568563461303711
            ],
            "type" : "VEC3"
        },
        {
            "bufferView" : 1,
            "componentType" : 5126,
            "count" : 578,
            "type" : "VEC3"
        },
        {
            "bufferView" : 2,
            "componentType" : 5126,
            "count" : 578,
            "type" : "VEC2"
        },
        {
            "bufferView" : 3,
            "componentType" : 5123,
            "count" : 3264,
            "type" : "SCALAR"
        },
        {
            "bufferView" : 4,
            "componentType" : 5126,
            "count" : 6122,
            "max" : [
                1.0724221467971802,
                1.1431514024734497,
                1.1370633840560913
            ],
            "min" : [
                -1.072481393814087,
                -1.9717416763305664,
                -2.2028188705444336
            ],
            "type" : "VEC3"
        },
        {
            "bufferView" : 5,
            "componentType" : 5126,
            "count" : 6122,
            "type" : "VEC3"
        },
        {
            "bufferView" : 6,
            "componentType" : 5126,
            "count" : 6122,
            "type" : "VEC2"
        },
        {
            "bufferView" : 7,
            "componentType" : 5123,
            "count" : 16320,
            "type" : "SCALAR"
        },
        {
            "bufferView" : 8,
            "componentType" : 5126,
            "count" : 916,
            "max" : [
                0.3959164321422577,
                1.4436513185501099,
                -0.7245896458625793
            ],
            "min" : [
                -0.3959164321422577,
                0.8655745983123779,
                -1.3311958312988281
            ],
            "type" : "VEC3"
        },
        {
            "bufferView" : 9,
            "componentType" : 5126,
            "count" : 916,
            "type" : "VEC3"
        },
        {
            "bufferView" : 10,
            "componentType" : 5126,
            "count" : 916,
            "type" : "VEC2"
        },
        {
            "bufferView" : 11,
            "componentType" : 5123,
            "count" : 2448,
            "type" : "SCALAR"
        }
    ],
    "bufferViews" : [
        {
            "buffer" : 0,
            "byteLength" : 6936,
            "byteOffset" : 0
        },
        {
            "buffer" : 0,
            "byteLength" : 6936,
            "byteOffset" : 6936
        },
        {
            "buffer" : 0,
            "byteLength" : 4624,
            "byteOffset" : 13872
        },
        {
            "buffer" : 0,
            "byteLength" : 6528,
            "byteOffset" : 18496
        },
        {
            "buffer" : 0,
            "byteLength" : 73464,
            "byteOffset" : 25024
        },
        {
            "buffer" : 0,
            "byteLength" : 73464,
            "byteOffset" : 98488
        },
        {
            "buffer" : 0,
            "byteLength" : 48976,
            "byteOffset" : 171952
        },
        {
            "buffer" : 0,
            "byteLength" : 32640,
            "byteOffset" : 220928
        },
        {
            "buffer" : 0,
            "byteLength" : 10992,
            "byteOffset" : 253568
        },
        {
            "buffer" : 0,
            "byteLength" : 10992,
            "byteOffset" : 264560
        },
        {
            "buffer" : 0,
            "byteLength" : 7328,
            "byteOffset" : 275552
        },
        {
            "buffer" : 0,
            "byteLength" : 4896,
            "byteOffset" : 282880
        }
    ],
    "buffers" : [
        {
            "byteLength" : 287776,
            "uri" : "duck_new.bin"
        }
    ]
}
