<?xml version="1.0" encoding="utf-8"?>
<!-- Generator: Adobe Illustrator 23.0.2, SVG Export Plug-In . SVG Version: 6.00 Build 0)  -->
<svg version="1.1" id="Layer_1" xmlns="http://www.w3.org/2000/svg" xmlns:xlink="http://www.w3.org/1999/xlink" x="0px" y="0px"
	 viewBox="0 0 27 28" style="enable-background:new 0 0 27 28;" xml:space="preserve">
<style type="text/css">
	.st0{display:none;}
	.st1{display:inline;}
	.st2{fill-rule:evenodd;clip-rule:evenodd;}
	.st3{stroke:#FFFFFF;stroke-width:1.5495;}
</style>
<title>Group 9</title>
<desc>Created with Sketch.</desc>
<g id="Footer" transform="translate(0.000000, 5590.000000)">
	<g id="Instagram" transform="translate(975.000000, 126.000000)">
		<g id="Group-9" transform="translate(0.000000, 1.000000)">
			<g id="Icon">
				<path id="Camera-Frame" d="M-972.3-5708.8v11.6c0,3,2.3,5.4,5.2,5.4h11.3c2.9,0,5.2-2.4,5.2-5.4v-11.6c0-3-2.3-5.4-5.2-5.4
					h-11.3C-970-5714.2-972.3-5711.8-972.3-5708.8z M-974.7-5708.8c0-4.4,3.4-7.9,7.6-7.9h11.3c4.2,0,7.6,3.5,7.6,7.9v11.6
					c0,4.4-3.4,7.9-7.6,7.9h-11.3c-4.2,0-7.6-3.5-7.6-7.9V-5708.8z"/>
				<g id="Oval-1" class="st0">
					<g class="st1">
						<ellipse id="path-1" class="st2" cx="-961.4" cy="-5702.9" rx="5.8" ry="6"/>
					</g>
					<g class="st1">
						<ellipse class="st3" cx="-961.4" cy="-5702.9" rx="5.8" ry="6"/>
					</g>
				</g>
				<g id="Oval-2">
					<g>
						<ellipse id="path-3" class="st2" cx="-954.3" cy="-5710.3" rx="1.7" ry="1.8"/>
					</g>
					<g>
						<ellipse class="st2" cx="-954.3" cy="-5710.3" rx="1.7" ry="1.8"/>
					</g>
				</g>
			</g>
			<path d="M-961.5-5695.6c-3.9,0-7.1-3.3-7.1-7.4s3.2-7.4,7.1-7.4s7.1,3.3,7.1,7.4S-957.6-5695.6-961.5-5695.6z M-961.5-5698.2
				c2.6,0,4.6-2.2,4.6-4.8s-2.1-4.8-4.6-4.8s-4.6,2.2-4.6,4.8S-964.1-5698.2-961.5-5698.2z"/>
			<ellipse class="st2" cx="-954.4" cy="-5710.4" rx="1.6" ry="1.6"/>
		</g>
	</g>
</g>
</svg>
