<?xml version="1.0" encoding="UTF-8"?>
<svg width="27px" height="25px" viewBox="0 0 27 25" version="1.1" xmlns="http://www.w3.org/2000/svg" xmlns:xlink="http://www.w3.org/1999/xlink">
    <!-- Generator: Sketch 49.3 (51167) - http://www.bohemiancoding.com/sketch -->
    <title>LinkedIn</title>
    <desc>Created with Sketch.</desc>
    <defs></defs>
    <g id="UI-" stroke="none" stroke-width="1" fill="none" fill-rule="evenodd">
        <g id="Team-Member-Overlay" transform="translate(-711.000000, -620.000000)" fill="#FFFFFF">
            <path d="M738,645 L732.053849,645 L732.053849,636.401971 C732.053849,634.151449 731.123725,632.61508 729.078401,632.61508 C727.513957,632.61508 726.643943,633.651855 726.238991,634.651043 C726.087134,635.009686 726.110862,635.50928 726.110862,636.008874 L726.110862,645 L720.220076,645 C720.220076,645 720.296004,629.76943 720.220076,628.384975 L726.110862,628.384975 L726.110862,630.992574 C726.458868,629.852435 728.341262,628.22523 731.345183,628.22523 C735.072007,628.22523 738,630.615138 738,635.761426 L738,645 L738,645 Z M714.262852,626.306727 L714.224888,626.306727 C712.326675,626.306727 711.096001,625.036599 711.096001,623.426622 C711.096001,621.785322 712.363058,620.541819 714.299234,620.541819 C716.233829,620.541819 717.423376,621.78219 717.46134,623.421924 C717.46134,625.0319 716.233829,626.306727 714.262852,626.306727 L714.262852,626.306727 L714.262852,626.306727 Z M711.774612,628.384975 L717.018424,628.384975 L717.018424,645 L711.774612,645 L711.774612,628.384975 L711.774612,628.384975 Z" id="LinkedIn"></path>
        </g>
    </g>
</svg>