<?xml version="1.0" encoding="utf-8"?>
<!-- Generator: Adobe Illustrator 23.0.2, SVG Export Plug-In . SVG Version: 6.00 Build 0)  -->
<svg version="1.1" id="Layer_1" xmlns="http://www.w3.org/2000/svg" xmlns:xlink="http://www.w3.org/1999/xlink" x="0px" y="0px"
	 viewBox="0 0 27 25" style="enable-background:new 0 0 27 25;" xml:space="preserve">
<style type="text/css">
	.st0{fill-rule:evenodd;clip-rule:evenodd;}
</style>
<title>LinkedIn</title>
<desc>Created with Sketch.</desc>
<g id="UI-">
	<g id="Team-Member-Overlay" transform="translate(-711.000000, -620.000000)">
		<path id="LinkedIn" class="st0" d="M738,645h-5.9v-8.6c0-2.3-0.9-3.8-3-3.8c-1.6,0-2.4,1-2.8,2c-0.2,0.4-0.1,0.9-0.1,1.4v9h-5.9
			c0,0,0.1-15.2,0-16.6h5.9v2.6c0.3-1.1,2.2-2.8,5.2-2.8c3.7,0,6.7,2.4,6.7,7.5V645L738,645z M714.3,626.3L714.3,626.3
			c-1.9,0-3.2-1.3-3.2-2.9c0-1.6,1.3-2.9,3.2-2.9c1.9,0,3.1,1.2,3.2,2.9C717.5,625,716.2,626.3,714.3,626.3L714.3,626.3L714.3,626.3
			z M711.8,628.4h5.2V645h-5.2V628.4L711.8,628.4z"/>
	</g>
</g>
</svg>
