{
    "accessors" : [
        {
            "bufferView" : 0,
            "componentType" : 5123,
            "count" : 2880,
            "max" : [
                513
            ],
            "min" : [
                0
            ],
            "type" : "SCALAR"
        },
        {
            "bufferView" : 1,
            "componentType" : 5126,
            "count" : 514,
            "max" : [
                0.8915830850601196,
                0.3306135833263397,
                0.6965809464454651
            ],
            "min" : [
                -0.8981967568397522,
                -0.0816364586353302,
                0.3955484628677368
            ],
            "type" : "VEC3"
        },
        {
            "bufferView" : 2,
            "componentType" : 5126,
            "count" : 514,
            "max" : [
                0.9976195693016052,
                0.999664306640625,
                0.9989318251609802
            ],
            "min" : [
                -0.35331279039382935,
                -0.9981383681297302,
                -0.9987182021141052
            ],
            "type" : "VEC3"
        },
        {
            "bufferView" : 3,
            "componentType" : 5123,
            "count" : 4068,
            "max" : [
                685
            ],
            "min" : [
                0
            ],
            "type" : "SCALAR"
        },
        {
            "bufferView" : 4,
            "componentType" : 5126,
            "count" : 686,
            "max" : [
                1.0875966548919678,
                1.0,
                1.161421537399292
            ],
            "min" : [
                -1.0875966548919678,
                -2.3551576137542725,
                -2.0030055046081543
            ],
            "type" : "VEC3"
        },
        {
            "bufferView" : 5,
            "componentType" : 5126,
            "count" : 686,
            "max" : [
                1.0,
                1.0,
                0.999755859375
            ],
            "min" : [
                -1.0,
                -0.9927670955657959,
                -0.999725341796875
            ],
            "type" : "VEC3"
        },
        {
            "bufferView" : 6,
            "componentType" : 5121,
            "count" : 624,
            "max" : [
                111
            ],
            "min" : [
                0
            ],
            "type" : "SCALAR"
        },
        {
            "bufferView" : 7,
            "componentType" : 5126,
            "count" : 112,
            "max" : [
                0.3826833963394165,
                0.11629970371723175,
                1.445529818534851
            ],
            "min" : [
                -0.3826833963394165,
                -0.48506996035575867,
                0.8496425151824951
            ],
            "type" : "VEC3"
        },
        {
            "bufferView" : 8,
            "componentType" : 5126,
            "count" : 112,
            "max" : [
                0.9484847784042358,
                0.9978026747703552,
                0.9954222440719604
            ],
            "min" : [
                -0.9484847784042358,
                -0.939085066318512,
                0.06598101556301117
            ],
            "type" : "VEC3"
        },
        {
            "bufferView" : 9,
            "componentType" : 5126,
            "count" : 40,
            "max" : [
                1.625
            ],
            "min" : [
                0.0
            ],
            "type" : "SCALAR"
        },
        {
            "bufferView" : 10,
            "componentType" : 5126,
            "count" : 40,
            "max" : [
                0.0012997016310691833,
                0.0755668580532074,
                0.003280460834503174
            ],
            "min" : [
                0.0012997016310691833,
                0.05556686222553253,
                0.003280460834503174
            ],
            "type" : "VEC3"
        }
    ],
    "animations" : [
        {
            "channels" : [
                {
                    "sampler" : 0,
                    "target" : {
                        "node" : 5,
                        "path" : "translation"
                    }
                }
            ],
            "name" : "Sphere.001Action",
            "samplers" : [
                {
                    "input" : 9,
                    "interpolation" : "LINEAR",
                    "output" : 10
                }
            ]
        }
    ],
    "asset" : {
        "generator" : "Khronos Blender glTF 2.0 exporter",
        "version" : "2.0"
    },
    "bufferViews" : [
        {
            "buffer" : 0,
            "byteLength" : 5760,
            "byteOffset" : 0,
            "target" : 34963
        },
        {
            "buffer" : 0,
            "byteLength" : 6168,
            "byteOffset" : 5760,
            "target" : 34962
        },
        {
            "buffer" : 0,
            "byteLength" : 6168,
            "byteOffset" : 11928,
            "target" : 34962
        },
        {
            "buffer" : 0,
            "byteLength" : 8136,
            "byteOffset" : 18096,
            "target" : 34963
        },
        {
            "buffer" : 0,
            "byteLength" : 8232,
            "byteOffset" : 26232,
            "target" : 34962
        },
        {
            "buffer" : 0,
            "byteLength" : 8232,
            "byteOffset" : 34464,
            "target" : 34962
        },
        {
            "buffer" : 0,
            "byteLength" : 624,
            "byteOffset" : 42696,
            "target" : 34963
        },
        {
            "buffer" : 0,
            "byteLength" : 1344,
            "byteOffset" : 43320,
            "target" : 34962
        },
        {
            "buffer" : 0,
            "byteLength" : 1344,
            "byteOffset" : 44664,
            "target" : 34962
        },
        {
            "buffer" : 0,
            "byteLength" : 160,
            "byteOffset" : 46008
        },
        {
            "buffer" : 0,
            "byteLength" : 480,
            "byteOffset" : 46168
        }
    ],
    "buffers" : [
        {
            "byteLength" : 46648,
            "uri" : "duck.bin"
        }
    ],
    "meshes" : [
        {
            "name" : "Sphere.001",
            "primitives" : [
                {
                    "attributes" : {
                        "NORMAL" : 2,
                        "POSITION" : 1
                    },
                    "indices" : 0
                },
                {
                    "attributes" : {
                        "NORMAL" : 5,
                        "POSITION" : 4
                    },
                    "indices" : 3
                },
                {
                    "attributes" : {
                        "NORMAL" : 8,
                        "POSITION" : 7
                    },
                    "indices" : 6
                }
            ]
        }
    ],
    "nodes" : [
        {
            "name" : "Area.001",
            "rotation" : [
                0.12287390232086182,
                -0.2772290110588074,
                0.009595794603228569,
                0.9528661966323853
            ],
            "scale" : [
                0.6377487182617188,
                0.6377487182617188,
                0.6377487182617188
            ],
            "translation" : [
                -0.390128493309021,
                9.840964317321777,
                1.6912761926651
            ]
        },
        {
            "name" : "Area.002",
            "rotation" : [
                -0.6865800023078918,
                -0.16913948953151703,
                -0.16913892328739166,
                0.6865798830986023
            ],
            "scale" : [
                0.9999999403953552,
                0.9999999403953552,
                1.0
            ],
            "translation" : [
                10.231363296508789,
                -0.07242393493652344,
                -18.186460494995117
            ]
        },
        {
            "name" : "Area.003",
            "rotation" : [
                0.33122918009757996,
                -0.1937556117773056,
                -0.3785727024078369,
                0.8422759175300598
            ],
            "translation" : [
                37.88306427001953,
                23.794071197509766,
                9.182815551757812
            ]
        },
        {
            "name" : "Area.004",
            "rotation" : [
                -0.4572608172893524,
                0.7923020720481873,
                -0.19018489122390747,
                0.35637009143829346
            ],
            "scale" : [
                1.0,
                0.9999999403953552,
                1.0
            ],
            "translation" : [
                -19.698949813842773,
                21.9736328125,
                -23.52627944946289
            ]
        },
        {
            "name" : "Area.005",
            "rotation" : [
                0.7071068286895752,
                0.0,
                -1.5700925641616852e-16,
                0.7071068286895752
            ],
            "translation" : [
                0.01944044418632984,
                0.008264541625976562,
                3.739020824432373
            ]
        },
        {
            "mesh" : 0,
            "name" : "duck",
            "rotation" : [
                -0.016665272414684296,
                -0.9719994068145752,
                0.005219499580562115,
                0.2343333512544632
            ],
            "scale" : [
                0.07486452907323837,
                0.07784735411405563,
                0.08221304416656494
            ],
            "translation" : [
                0.0012997016310691833,
                0.05556686222553253,
                0.003280460834503174
            ]
        }
    ],
    "scene" : 0,
    "scenes" : [
        {
            "name" : "Scene",
            "nodes" : [
                0,
                1,
                2,
                3,
                4,
                5
            ]
        }
    ]
}
